<svg width="23" height="23" viewBox="0 0 23 23" fill="none" xmlns="http://www.w3.org/2000/svg">
<path fill-rule="evenodd" clip-rule="evenodd" d="M22.5849 10.7266C22.4905 7.86712 21.295 5.15469 19.2479 3.15591C17.2009 1.15712 14.4607 0.026592 11.5998 0.000463154C8.73892 -0.0256657 5.97856 1.05464 3.89536 3.0157C1.81216 4.97676 0.567253 7.66688 0.420691 10.5242C0.415414 10.685 0.410299 10.8461 0.410299 11.007C0.40805 13.0119 0.957673 14.9788 1.99895 16.6921L0 22.5954L6.14217 20.6431C7.82578 21.5675 9.7204 22.0395 11.6409 22.0128C13.5615 21.9861 15.4422 21.4616 17.0995 20.4907C18.7568 19.5198 20.1338 18.1356 21.0962 16.4734C22.0585 14.8111 22.5732 12.9277 22.59 11.007C22.59 10.9135 22.59 10.82 22.5849 10.7266ZM11.5001 20.2589C9.67702 20.263 7.89302 19.7303 6.37056 18.7273L2.78814 19.8695L3.95116 16.4325C2.79643 14.8593 2.17433 12.9585 2.1755 11.007C2.17541 10.707 2.19098 10.4072 2.22216 10.1088C2.46458 7.80094 3.55852 5.66625 5.29036 4.12162C7.02219 2.57699 9.26758 1.73333 11.5881 1.75537C13.9086 1.77741 16.1375 2.66358 17.8397 4.24082C19.5419 5.81806 20.5951 7.97312 20.7936 10.2852C20.8144 10.5242 20.8249 10.7629 20.8249 11.007C20.8125 13.4696 19.8237 15.8266 18.0756 17.5611C16.3275 19.2955 13.9627 20.2658 11.5001 20.2589Z" fill="white"/>
<path fill-rule="evenodd" clip-rule="evenodd" d="M16.583 13.2293C16.3079 13.0944 14.9735 12.4401 14.7243 12.3519C14.475 12.2585 14.2933 12.2168 14.1117 12.4869C13.9299 12.7567 13.4056 13.3643 13.2498 13.5408C13.0888 13.7225 12.9333 13.7432 12.658 13.6083C11.8566 13.2932 11.1167 12.8398 10.4721 12.2688C9.87829 11.7263 9.36906 11.0981 8.96126 10.4049C8.80548 10.1349 8.94573 9.98957 9.08071 9.85459C9.20531 9.73001 9.35067 9.53789 9.49084 9.38213C9.52729 9.33546 9.55829 9.29382 9.58946 9.25226C9.65303 9.14849 9.71028 9.04096 9.76088 8.93027C9.79786 8.85626 9.81536 8.77403 9.81172 8.69137C9.80809 8.60872 9.78344 8.52836 9.74011 8.45788C9.6725 8.32291 9.12746 6.99374 8.89898 6.45391C8.67577 5.914 8.44729 6.00734 8.28634 6.00734C8.1305 6.00734 7.94886 5.98145 7.76721 5.98145C7.62938 5.98483 7.49371 6.01654 7.36865 6.0746C7.2436 6.13266 7.13182 6.21583 7.04028 6.31893C6.73358 6.60753 6.49061 6.95705 6.32697 7.34509C6.16333 7.73313 6.08264 8.15111 6.09007 8.57218C6.09487 8.88345 6.14209 9.19262 6.23042 9.49114C6.44359 10.1656 6.77206 10.798 7.20124 11.3602C7.33614 11.5368 9.08071 14.3508 11.8428 15.436C14.6101 16.5107 14.6101 16.1524 15.1086 16.1056C15.4877 16.0345 15.8472 15.8833 16.1632 15.6622C16.4793 15.441 16.7445 15.155 16.9411 14.8233C17.1202 14.421 17.1762 13.9748 17.1022 13.5408C17.0346 13.4318 16.8528 13.3643 16.583 13.2293Z" fill="white"/>
</svg>
