<svg width="23" height="23" viewBox="0 0 23 23" fill="none" xmlns="http://www.w3.org/2000/svg">
<path d="M11.2943 2.03499C14.3101 2.03499 14.6673 2.04649 15.8582 2.10089C16.5744 2.10935 17.2839 2.24095 17.9555 2.4899C18.4426 2.67777 18.8849 2.96552 19.2541 3.33466C19.6232 3.70379 19.911 4.14613 20.0989 4.63319C20.3478 5.30488 20.4794 6.01433 20.4879 6.73059C20.5421 7.92149 20.5538 8.27869 20.5538 11.2945C20.5538 14.3103 20.5421 14.6675 20.4879 15.8584C20.4794 16.5746 20.3478 17.2839 20.0989 17.9555C19.9111 18.4426 19.6233 18.885 19.2542 19.2542C18.885 19.6234 18.4426 19.9112 17.9555 20.0991C17.2839 20.348 16.5744 20.4796 15.8582 20.4881C14.6673 20.5422 14.3103 20.5538 11.2943 20.5538C8.27831 20.5538 7.92131 20.5422 6.7304 20.4881C6.0142 20.4797 5.30479 20.3481 4.6332 20.0991C4.14264 19.918 3.69887 19.6293 3.3345 19.2543C2.95942 18.8899 2.67072 18.4461 2.4896 17.9555C2.24083 17.2839 2.10925 16.5745 2.1006 15.8584C2.0464 14.6675 2.035 14.3104 2.035 11.2945C2.035 8.27859 2.0464 7.92149 2.1006 6.73059C2.1093 6.01435 2.24088 5.30492 2.4896 4.63319C2.6708 4.14273 2.95949 3.69904 3.3345 3.33469C3.69882 2.95956 4.1426 2.6709 4.6332 2.4899C5.30479 2.24092 6.0142 2.10933 6.7304 2.10089C7.92131 2.04649 8.2787 2.03499 11.2943 2.03499ZM11.2943 0C8.2269 0 7.84231 0.0130932 6.6376 0.0679932C5.70063 0.0867968 4.77363 0.264306 3.896 0.592987C3.14233 0.876498 2.45961 1.32108 1.8955 1.89569C1.32092 2.45983 0.876405 3.14258 0.593 3.89629C0.264116 4.77382 0.0865939 5.70083 0.068 6.63779C0.0129 7.84259 0 8.22709 0 11.2945C0 14.3619 0.0129 14.7465 0.068 15.9512C0.0866058 16.8882 0.264127 17.8152 0.593 18.6928C0.876456 19.4464 1.32096 20.1292 1.8955 20.6933C2.45964 21.2679 3.14235 21.7124 3.896 21.996C4.77363 22.3247 5.70063 22.5022 6.6376 22.521C7.84231 22.5759 8.2269 22.5889 11.2943 22.5889C14.3617 22.5889 14.7462 22.5759 15.951 22.521C16.8879 22.5022 17.8149 22.3247 18.6925 21.996C19.4428 21.7058 20.1242 21.2622 20.6931 20.6933C21.2619 20.1245 21.7056 19.4431 21.9958 18.6928C22.3244 17.8152 22.5019 16.8882 22.5208 15.9512C22.5757 14.7465 22.5886 14.3619 22.5886 11.2945C22.5886 8.22709 22.5757 7.84259 22.5208 6.63779C22.502 5.70085 22.3244 4.77389 21.9958 3.89629C21.7057 3.14596 21.2619 2.46454 20.6931 1.89569C20.1243 1.32684 19.4428 0.883127 18.6925 0.592987C17.8149 0.264315 16.8879 0.0868058 15.951 0.0679932C14.7462 0.0130932 14.3617 0 11.2943 0Z" fill="white"/>
<path d="M11.2943 5.49463C10.1472 5.49463 9.02589 5.83479 8.07212 6.47208C7.11835 7.10937 6.37497 8.01516 5.936 9.07494C5.49702 10.1347 5.38216 11.3009 5.60595 12.4259C5.82974 13.551 6.38211 14.5844 7.19323 15.3955C8.00434 16.2066 9.03777 16.759 10.1628 16.9828C11.2879 17.2066 12.454 17.0917 13.5138 16.6528C14.5736 16.2138 15.4794 15.4704 16.1167 14.5166C16.754 13.5629 17.0941 12.4415 17.0941 11.2944C17.0941 9.75624 16.483 8.28104 15.3954 7.19337C14.3077 6.1057 12.8325 5.49465 11.2943 5.49463ZM11.2943 15.0592C10.5497 15.0593 9.82181 14.8385 9.20268 14.4248C8.58355 14.0111 8.10099 13.4232 7.81602 12.7352C7.53105 12.0473 7.45648 11.2903 7.60174 10.56C7.74699 9.82972 8.10554 9.15888 8.63206 8.63235C9.15857 8.10583 9.82939 7.74725 10.5597 7.60197C11.29 7.4567 12.047 7.53125 12.7349 7.81619C13.4228 8.10114 14.0108 8.58368 14.4245 9.2028C14.8382 9.82193 15.059 10.5498 15.059 11.2944C15.059 12.2929 14.6624 13.2505 13.9563 13.9565C13.2503 14.6625 12.2928 15.0592 11.2943 15.0592Z" fill="white"/>
<path d="M18.6787 5.26521C18.6787 5.53329 18.5992 5.79536 18.4503 6.01826C18.3014 6.24117 18.0897 6.41492 17.842 6.51752C17.5944 6.62012 17.3218 6.64696 17.0589 6.59467C16.796 6.54237 16.5544 6.41329 16.3649 6.22372C16.1753 6.03416 16.0462 5.79264 15.9939 5.52971C15.9416 5.26678 15.9685 4.99424 16.0711 4.74657C16.1737 4.4989 16.3474 4.28722 16.5703 4.13829C16.7932 3.98936 17.0553 3.90989 17.3234 3.90991C17.6828 3.90998 18.0275 4.05279 18.2817 4.30695C18.5358 4.5611 18.6786 4.90579 18.6787 5.26521Z" fill="white"/>
</svg>
