<svg width="23" height="21" viewBox="0 0 23 21" fill="none" xmlns="http://www.w3.org/2000/svg">
<path fill-rule="evenodd" clip-rule="evenodd" d="M21.4634 14.8247C20.9004 14.5492 18.1709 13.2104 17.6612 13.0302C17.1511 12.8388 16.7794 12.7541 16.4079 13.3064C16.0363 13.8582 14.9638 15.1009 14.645 15.462C14.316 15.8336 13.9977 15.8762 13.4349 15.6C11.7954 14.9559 10.282 14.0284 8.96385 12.8599C7.74937 11.7505 6.70766 10.4656 5.87327 9.04791C5.55495 8.49546 5.84167 8.19823 6.1179 7.92211C6.37242 7.66759 6.67005 7.27435 6.95647 6.95603C7.03118 6.86011 7.09438 6.77521 7.1582 6.6903C7.28819 6.47805 7.40521 6.25813 7.50862 6.03174C7.58433 5.88038 7.6202 5.71223 7.61286 5.54315C7.60551 5.37408 7.55518 5.20967 7.46663 5.06545C7.32831 4.78923 6.21332 2.07068 5.74576 0.966081C5.28943 -0.138012 4.82228 0.0526972 4.49295 0.0526972C4.17412 0.0526972 3.80248 0 3.43095 0C3.14908 0.00697601 2.87165 0.0718116 2.61588 0.190483C2.36011 0.309154 2.13146 0.479128 1.94412 0.689854C1.31698 1.28033 0.820153 1.99537 0.485523 2.78909C0.150894 3.58282 -0.0141573 4.43772 0.000951025 5.29897C0.0108228 5.93573 0.107244 6.56818 0.287571 7.17895C0.723874 8.55845 1.39584 9.85195 2.27366 11.0021C2.54927 11.363 6.1179 17.1184 11.7673 19.3383C17.4273 21.5366 17.4273 20.8037 18.4471 20.7083C19.4664 20.6227 21.7396 19.3807 22.1953 18.0851C22.562 17.2625 22.6766 16.3497 22.5248 15.462C22.3868 15.2391 22.0147 15.1009 21.4634 14.8247Z" fill="white"/>
</svg>
